:SAMPLES-PER-SECOND 30
:FULLY-SPECIFIED
:DEGREES
500
root  -2.4383 38.048 15.3386 -172.234 -34.8252 176.791
RightUpLeg  -10.9119 2.70094 -19.6748
RightLeg  28.5152 5.16506 2.82608
RightFoot  -8.59782 -0.729748 27.5118
RightToes  -1.39699e-009 0 -3.6325e-017
Spine  18.8409 3.69863 1.48747
Spine1  14.4226 0.34704 11.8523
HEad  -6.21122 -34.9049 -4.89691
LeftShoulder1  1.21414 -3.41821 -10.2544
LeftArm  -3.15136 -4.4541 -56.7987
LeftForeArm  114.44 -58.0609 -159.769
LeftHand  -0.839018 1.03599 22.174
RightShoulder  0.333654 -1.11073 6.2789
RightArm  -42.1849 11.331 50.8761
RightForeArm  43.4373 70.8201 139.981
RightHand  -4.04983 6.50163 -38.3568
LeftUpLeg  -30.5915 -3.66193 4.11637
LeftLeg  29.4179 0.239204 0.501993
LeftFoot  -1.70171 1.27625 -14.9509
LeftToes  3.40148e-010 1.80944e-010 1.01921e-010
501
root  -2.68722 37.9302 15.3311 -173.021 -30.7279 178.27
RightUpLeg  -10.8456 -0.0370812 -18.3796
RightLeg  26.2364 0.650072 0.104406
RightFoot  -9.0528 -0.62688 27.7337
RightToes  -1.39699e-009 0 -3.6325e-017
Spine  18.5815 3.02653 0.439406
Spine1  14.7184 -1.30033 14.0052
HEad  -6.22961 -28.9149 -6.41392
LeftShoulder1  1.02837 -2.06484 -11.2721
LeftArm  -5.10628 5.4153 -52.8326
LeftForeArm  116.685 -53.7849 -162.632
LeftHand  -0.526545 1.87767 17.3131
RightShoulder  0.204022 -2.20823 8.43502
RightArm  -58.8904 4.93327 47.844
RightForeArm  41.3267 70.8429 139.996
RightHand  -4.90701 7.83595 -41.4969
LeftUpLeg  -31.5408 -6.5058 7.10176
LeftLeg  32.8621 1.21966 1.196
LeftFoot  -2.93689 1.29193 -17.2587
LeftToes  3.40148e-010 1.80944e-010 1.01921e-010
502
root  -2.88237 37.6449 15.3262 -174.114 -24.4231 179.51
RightUpLeg  -12.338 -2.68524 -17.1682
RightLeg  26.3914 -2.66744 -1.67747
RightFoot  -9.77733 -0.437205 26.5408
RightToes  -1.39699e-009 0 -3.6325e-017
Spine  18.5388 2.683 -0.64719
Spine1  16.49 -2.29809 14.7375
HEad  -7.91064 -22.1998 -7.72072
LeftShoulder1  0.804403 -0.659059 -12.2226
LeftArm  -5.65388 14.785 -49.144
LeftForeArm  118.195 -52.7497 -163.261
LeftHand  -0.383425 2.26882 14.2315
RightShoulder  0.0496315 -3.20034 9.92597
RightArm  -63.7362 -0.390331 46.9334
RightForeArm  39.0938 70.7944 140.201
RightHand  -5.42138 8.16351 -44.4829
LeftUpLeg  -32.0893 -8.30438 10.3125
LeftLeg  37.6582 0.561484 0.828385
LeftFoot  -4.65391 1.21114 -20.086
LeftToes  3.40148e-010 1.80944e-010 1.01921e-010
503
root  -3.07933 37.2841 15.3646 -175.357 -16.4158 -179.788
RightUpLeg  -14.8297 -1.90552 -16.6291
RightLeg  27.8065 -2.91818 -1.89475
RightFoot  -10.892 -0.173724 24.9613
RightToes  -1.39699e-009 0 -3.6325e-017
Spine  18.8268 2.77664 -2.20864
Spine1  18.6887 -2.70203 14.6735
HEad  -9.58836 -14.8816 -10.2303
LeftShoulder1  0.630133 0.423675 -13.4503
LeftArm  -5.30248 22.1642 -46.676
LeftForeArm  119.2 -53.906 -162.654
LeftHand  -0.457325 1.8768 14.9347
RightShoulder  -0.0318897 -3.6623 10.954
RightArm  -58.5013 -3.36532 47.162
RightForeArm  43.8396 67.9812 146.319
RightHand  -4.8939 7.13512 -43.4437
LeftUpLeg  -31.6631 -9.55014 12.9833
LeftLeg  42.6822 -0.713483 -0.312063
LeftFoot  -6.29156 1.04655 -22.5974
LeftToes  3.40148e-010 1.80944e-010 1.01921e-010
504
root  -3.36152 36.9399 15.4154 -176.63 -8.66792 -179.423
RightUpLeg  -16.9892 1.6278 -16.924
RightLeg  28.7821 -0.465336 -0.514569
RightFoot  -11.9229 0.0461075 24.643
RightToes  -1.39699e-009 0 -3.6325e-017
Spine  19.1283 2.89131 -3.07924
Spine1  20.7019 -2.56818 13.6371
HEad  -10.7171 -8.48259 -12.7396
LeftShoulder1  0.524163 1.04875 -14.4082
LeftArm  -4.41398 25.1944 -46.2037
LeftForeArm  118.921 -55.8586 -161.455
LeftHand  -0.612981 1.51539 18.2761
RightShoulder  0.00886857 -3.4363 11.4787
RightArm  -50.7669 -4.48932 47.5088
RightForeArm  50.416 64.0941 152.376
RightHand  -4.09038 6.05132 -40.1698
LeftUpLeg  -30.6081 -11.4158 14.971
LeftLeg  47.0366 -2.33385 -2.26678
LeftFoot  -7.51619 0.8687 -24.3206
LeftToes  3.40148e-010 1.80944e-010 1.01921e-010
505
root  -3.75834 36.6922 15.444 -177.644 -2.64206 -178.985
RightUpLeg  -18.2986 4.47561 -17.4029
RightLeg  28.6774 2.78008 1.40618
RightFoot  -12.0836 0.0830954 25.333
RightToes  -1.39699e-009 0 -3.6325e-017
Spine  19.1511 2.72812 -2.41966
Spine1  22.247 -1.9948 11.6864
HEad  -11.1579 -4.05181 -13.664
LeftShoulder1  0.472915 1.29347 -14.4718
LeftArm  -3.09356 23.6224 -47.6426
LeftForeArm  119.59 -57.7326 -160.24
LeftHand  -0.794782 1.04304 21.1764
RightShoulder  0.0923388 -2.99007 11.5214
RightArm  -44.8373 -4.78069 47.6581
RightForeArm  53.5517 62.1903 154.554
RightHand  -3.9003 5.81199 -39.1881
LeftUpLeg  -29.5149 -13.9611 16.5436
LeftLeg  50.0704 -4.42747 -5.20358
LeftFoot  -8.55811 0.673229 -25.2294
LeftToes  3.40148e-010 1.80944e-010 1.01921e-010
506
root  -4.23354 36.6329 15.4605 -178.197 1.37921 -178.567
RightUpLeg  -18.7279 5.56963 -17.7062
RightLeg  27.3845 4.72373 2.42297
RightFoot  -10.7423 -0.212745 26.1059
RightToes  -1.39699e-009 0 -3.6325e-017
Spine  18.9454 2.43046 -1.54221
Spine1  23.0482 -1.59895 10.191
HEad  -11.1717 -1.0178 -13.2938
LeftShoulder1  0.467707 1.26289 -13.9073
LeftArm  -1.49272 19.8933 -50.2126
LeftForeArm  122.125 -59.3846 -159.192
LeftHand  -1.00225 0.242465 22.5491
RightShoulder  0.16876 -2.57371 11.3295
RightArm  -39.1968 -5.43843 47.8547
RightForeArm  55.5962 61.66 155.062
RightHand  -3.65706 5.29998 -38.5051
LeftUpLeg  -28.4386 -16.1949 17.4215
LeftLeg  51.3095 -6.49777 -8.16748
LeftFoot  -9.42669 0.489992 -25.5685
LeftToes  3.40148e-010 1.80944e-010 1.01921e-010
507
root  -4.7604 36.8088 15.4821 -178.392 3.85831 -178.686
RightUpLeg  -18.3879 6.79336 -18.4923
RightLeg  24.7326 4.81167 2.22626
RightFoot  -8.0004 -0.84673 26.6785
RightToes  -1.39699e-009 0 -3.6325e-017
Spine  18.7484 2.18766 -2.0256
Spine1  23.0172 -1.88558 10.046
HEad  -11.4678 1.53652 -12.8502
LeftShoulder1  0.487734 1.09225 -13.1952
LeftArm  0.285222 16.44 -52.9147
LeftForeArm  124.297 -60.9299 -158.109
LeftHand  -1.19794 -0.483112 23.595
RightShoulder  0.27366 -1.99212 11.1141
RightArm  -31.9645 -7.37639 48.442
RightForeArm  61.5634 61.1733 155.467
RightHand  -2.9445 4.12869 -35.054
LeftUpLeg  -27.1303 -17.2449 16.8818
LeftLeg  50.6427 -7.84092 -9.68767
LeftFoot  -9.74861 0.417317 -25.4946
LeftToes  3.40148e-010 1.80944e-010 1.01921e-010
508
root  -5.34726 37.151 15.4899 -178.308 5.68631 -179.367
RightUpLeg  -17.6627 8.72121 -19.896
RightLeg  20.8882 3.45303 1.10375
RightFoot  -4.12698 -1.78714 27.3478
RightToes  -1.39699e-009 0 -3.6325e-017
Spine  18.5589 1.98563 -3.35517
Spine1  22.4526 -2.38702 10.2277
HEad  -12.4144 3.70652 -12.6398
LeftShoulder1  0.494494 0.976403 -12.4654
LeftArm  2.46126 13.7195 -55.0669
LeftForeArm  125.205 -62.6254 -156.674
LeftHand  -1.37608 -0.96774 25.0059
RightShoulder  0.416177 -1.20206 10.9944
RightArm  -24.179 -10.4834 49.2946
RightForeArm  71.3889 61.0572 155.54
RightHand  -2.37074 3.31774 -31.1728
LeftUpLeg  -25.4159 -16.7811 14.9869
LeftLeg  48.3994 -8.22337 -9.39287
LeftFoot  -9.90489 0.371101 -24.5669
LeftToes  3.40148e-010 1.80944e-010 1.01921e-010
509
root  -5.98647 37.5335 15.4679 -177.866 7.84605 -179.986
RightUpLeg  -17.0334 6.86598 -20.173
RightLeg  16.547 2.29081 -0.861145
RightFoot  1.14532 -3.09946 27.8788
RightToes  -1.39699e-009 0 -3.6325e-017
Spine  18.1638 1.86137 -4.03679
Spine1  21.6619 -2.22584 9.30715
HEad  -13.55 5.29913 -12.278
LeftShoulder1  0.477901 0.993083 -11.8807
LeftArm  5.09635 11.2382 -56.5926
LeftForeArm  125.835 -64.847 -154.47
LeftHand  -1.532 -1.42931 25.9367
RightShoulder  0.536092 -0.556023 11.0815
RightArm  -17.5084 -13.9306 50.1608
RightForeArm  79.8436 61.5732 155.121
RightHand  -2.07973 2.79222 -29.1576
LeftUpLeg  -23.2816 -14.7017 12.7288
LeftLeg  45.0995 -7.85549 -7.96999
LeftFoot  -10.8169 0.170296 -22.3228
LeftToes  3.40148e-010 1.80944e-010 1.01921e-010
510
root  -6.63802 37.847 15.4544 -177.251 10.7102 179.703
RightUpLeg  -17.0625 -0.758818 -18.6223
RightLeg  12.939 0.59522 -2.9112
RightFoot  7.49162 -4.45564 26.8072
RightToes  -1.39699e-009 0 -3.6325e-017
Spine  17.6763 1.9491 -4.08612
Spine1  20.6515 -1.35055 7.45227
HEad  -14.3577 6.5519 -11.7901
LeftShoulder1  0.460475 1.06621 -11.7244
LeftArm  7.65141 8.99833 -57.6746
LeftForeArm  125.601 -67.5657 -151.115
LeftHand  -1.61714 -1.82549 25.8756
RightShoulder  0.591734 -0.292314 11.3442
RightArm  -12.2989 -16.9194 51.1671
RightForeArm  85.0145 62.1164 154.699
RightHand  -1.67387 1.75608 -26.8887
LeftUpLeg  -20.9946 -11.2217 10.6661
LeftLeg  41.4997 -7.07386 -6.27752
LeftFoot  -12.5044 -0.120029 -19.1436
LeftToes  3.40148e-010 1.80944e-010 1.01921e-010
511
root  -7.26148 37.9972 15.5088 -177.099 13.741 179.09
RightUpLeg  -18.168 -5.97821 -18.0364
RightLeg  11.9952 -7.0122 -3.91853
RightFoot  12.4928 -4.93238 23.4791
RightToes  -1.39699e-009 0 -3.6325e-017
Spine  17.5259 2.22276 -4.89966
Spine1  19.5845 -0.566928 5.92857
HEad  -15.11 7.74268 -11.575
LeftShoulder1  0.467509 1.05795 -11.9736
LeftArm  9.41172 7.17082 -58.2985
LeftForeArm  122.716 -70.2007 -146.679
LeftHand  -1.60265 -1.85015 25.5728
RightShoulder  0.622104 -0.18052 11.6673
RightArm  -8.24592 -18.8575 52.4672
RightForeArm  89.4436 62.4966 154.458
RightHand  -1.24868 0.69088 -23.7332
LeftUpLeg  -19.0287 -7.40949 8.38512
LeftLeg  38.7372 -6.13311 -4.87237
LeftFoot  -14.1921 -0.318128 -16.0486
LeftToes  3.40148e-010 1.80944e-010 1.01921e-010
512
root  -7.85864 37.9602 15.6332 -177.894 16.2572 177.884
RightUpLeg  -19.7619 -8.27144 -18.6202
RightLeg  14.2038 -13.9277 -4.83514
RightFoot  14.0452 -4.51311 20.2548
RightToes  -1.39699e-009 0 -3.6325e-017
Spine  17.7974 2.44373 -6.59428
Spine1  19.0667 -0.37201 5.25355
HEad  -15.9193 8.96723 -11.9359
LeftShoulder1  0.544354 0.726399 -12.5032
LeftArm  10.1055 5.29418 -58.1367
LeftForeArm  117.818 -72.3512 -141.65
LeftHand  -1.61606 -1.7226 26.2144
RightShoulder  0.682337 0.0664466 12.0955
RightArm  -5.05712 -19.3945 53.7635
RightForeArm  94.6612 63.1644 153.972
RightHand  -1.09645 0.435329 -21.7992
LeftUpLeg  -17.5422 -4.68737 5.76792
LeftLeg  37.4857 -5.19135 -3.88059
LeftFoot  -15.5949 -0.427862 -13.9361
LeftToes  3.40148e-010 1.80944e-010 1.01921e-010
513
root  -8.41392 37.8135 15.7538 -179.291 18.183 176.676
RightUpLeg  -21.3162 -9.05708 -19.4414
RightLeg  18.2875 -14.9146 -5.57648
RightFoot  12.6843 -4.08661 19.4653
RightToes  -1.39699e-009 0 -3.6325e-017
Spine  17.9702 2.46853 -7.95277
Spine1  19.4087 -0.458056 4.76124
HEad  -15.4526 10.8936 -13.0812
LeftShoulder1  0.745298 -0.117456 -13.5622
LeftArm  9.98253 2.78684 -56.8977
LeftForeArm  114.234 -74.2072 -136.18
LeftHand  -1.88046 -2.25445 28.2525
RightShoulder  0.75179 0.334033 12.6262
RightArm  -2.43824 -18.718 54.7045
RightForeArm  100.132 64.2702 153.031
RightHand  -1.15599 0.901251 -21.2851
LeftUpLeg  -16.18 -3.29729 3.48933
LeftLeg  37.1339 -4.41984 -3.20625
LeftFoot  -17.16 -0.552785 -12.8428
LeftToes  3.40148e-010 1.80944e-010 1.01921e-010
